<?xml-stylesheet type="text/css" href="/timeline.css"?>
<svg xmlns="http://www.w3.org/2000/svg" version="1.1" width="2864" height="3000" transform-origin="100, 200">
  <title>Historical Timeline Generator by Andy Brice</title>
  <g transform="translate(774.5, 50.5)">
    <line x1="-720" y1="0" x2="-720" y2="10" class="check"/>
    <line x1="-710" y1="0" x2="-710" y2="10" class="check"/>
    <line x1="-700" y1="0" x2="-700" y2="20" class="check"/>
    <line x1="-700" y1="30" x2="-700" y2="2000" class="grid"/>
    <text class="check century" x="-700" y="-5" text-anchor="middle">-700</text>
    <line x1="-690" y1="0" x2="-690" y2="10" class="check"/>
    <line x1="-680" y1="0" x2="-680" y2="10" class="check"/>
    <line x1="-670" y1="0" x2="-670" y2="10" class="check"/>
    <line x1="-660" y1="0" x2="-660" y2="10" class="check"/>
    <line x1="-650" y1="0" x2="-650" y2="15" class="check"/>
    <text class="check half-century" x="-650" y="-5" text-anchor="middle">50</text>
    <line x1="-640" y1="0" x2="-640" y2="10" class="check"/>
    <line x1="-630" y1="0" x2="-630" y2="10" class="check"/>
    <line x1="-620" y1="0" x2="-620" y2="10" class="check"/>
    <line x1="-610" y1="0" x2="-610" y2="10" class="check"/>
    <line x1="-600" y1="0" x2="-600" y2="20" class="check"/>
    <line x1="-600" y1="30" x2="-600" y2="2000" class="grid"/>
    <text class="check century" x="-600" y="-5" text-anchor="middle">-600</text>
    <line x1="-590" y1="0" x2="-590" y2="10" class="check"/>
    <line x1="-580" y1="0" x2="-580" y2="10" class="check"/>
    <line x1="-570" y1="0" x2="-570" y2="10" class="check"/>
    <line x1="-560" y1="0" x2="-560" y2="10" class="check"/>
    <line x1="-550" y1="0" x2="-550" y2="15" class="check"/>
    <text class="check half-century" x="-550" y="-5" text-anchor="middle">50</text>
    <line x1="-540" y1="0" x2="-540" y2="10" class="check"/>
    <line x1="-530" y1="0" x2="-530" y2="10" class="check"/>
    <line x1="-520" y1="0" x2="-520" y2="10" class="check"/>
    <line x1="-510" y1="0" x2="-510" y2="10" class="check"/>
    <line x1="-500" y1="0" x2="-500" y2="20" class="check"/>
    <line x1="-500" y1="30" x2="-500" y2="2000" class="grid"/>
    <text class="check century" x="-500" y="-5" text-anchor="middle">-500</text>
    <line x1="-490" y1="0" x2="-490" y2="10" class="check"/>
    <line x1="-480" y1="0" x2="-480" y2="10" class="check"/>
    <line x1="-470" y1="0" x2="-470" y2="10" class="check"/>
    <line x1="-460" y1="0" x2="-460" y2="10" class="check"/>
    <line x1="-450" y1="0" x2="-450" y2="15" class="check"/>
    <text class="check half-century" x="-450" y="-5" text-anchor="middle">50</text>
    <line x1="-440" y1="0" x2="-440" y2="10" class="check"/>
    <line x1="-430" y1="0" x2="-430" y2="10" class="check"/>
    <line x1="-420" y1="0" x2="-420" y2="10" class="check"/>
    <line x1="-410" y1="0" x2="-410" y2="10" class="check"/>
    <line x1="-400" y1="0" x2="-400" y2="20" class="check"/>
    <line x1="-400" y1="30" x2="-400" y2="2000" class="grid"/>
    <text class="check century" x="-400" y="-5" text-anchor="middle">-400</text>
    <line x1="-390" y1="0" x2="-390" y2="10" class="check"/>
    <line x1="-380" y1="0" x2="-380" y2="10" class="check"/>
    <line x1="-370" y1="0" x2="-370" y2="10" class="check"/>
    <line x1="-360" y1="0" x2="-360" y2="10" class="check"/>
    <line x1="-350" y1="0" x2="-350" y2="15" class="check"/>
    <text class="check half-century" x="-350" y="-5" text-anchor="middle">50</text>
    <line x1="-340" y1="0" x2="-340" y2="10" class="check"/>
    <line x1="-330" y1="0" x2="-330" y2="10" class="check"/>
    <line x1="-320" y1="0" x2="-320" y2="10" class="check"/>
    <line x1="-310" y1="0" x2="-310" y2="10" class="check"/>
    <line x1="-300" y1="0" x2="-300" y2="20" class="check"/>
    <line x1="-300" y1="30" x2="-300" y2="2000" class="grid"/>
    <text class="check century" x="-300" y="-5" text-anchor="middle">-300</text>
    <line x1="-290" y1="0" x2="-290" y2="10" class="check"/>
    <line x1="-280" y1="0" x2="-280" y2="10" class="check"/>
    <line x1="-270" y1="0" x2="-270" y2="10" class="check"/>
    <line x1="-260" y1="0" x2="-260" y2="10" class="check"/>
    <line x1="-250" y1="0" x2="-250" y2="15" class="check"/>
    <text class="check half-century" x="-250" y="-5" text-anchor="middle">50</text>
    <line x1="-240" y1="0" x2="-240" y2="10" class="check"/>
    <line x1="-230" y1="0" x2="-230" y2="10" class="check"/>
    <line x1="-220" y1="0" x2="-220" y2="10" class="check"/>
    <line x1="-210" y1="0" x2="-210" y2="10" class="check"/>
    <line x1="-200" y1="0" x2="-200" y2="20" class="check"/>
    <line x1="-200" y1="30" x2="-200" y2="2000" class="grid"/>
    <text class="check century" x="-200" y="-5" text-anchor="middle">-200</text>
    <line x1="-190" y1="0" x2="-190" y2="10" class="check"/>
    <line x1="-180" y1="0" x2="-180" y2="10" class="check"/>
    <line x1="-170" y1="0" x2="-170" y2="10" class="check"/>
    <line x1="-160" y1="0" x2="-160" y2="10" class="check"/>
    <line x1="-150" y1="0" x2="-150" y2="15" class="check"/>
    <text class="check half-century" x="-150" y="-5" text-anchor="middle">50</text>
    <line x1="-140" y1="0" x2="-140" y2="10" class="check"/>
    <line x1="-130" y1="0" x2="-130" y2="10" class="check"/>
    <line x1="-120" y1="0" x2="-120" y2="10" class="check"/>
    <line x1="-110" y1="0" x2="-110" y2="10" class="check"/>
    <line x1="-100" y1="0" x2="-100" y2="20" class="check"/>
    <line x1="-100" y1="30" x2="-100" y2="2000" class="grid"/>
    <text class="check century" x="-100" y="-5" text-anchor="middle">-100</text>
    <line x1="-90" y1="0" x2="-90" y2="10" class="check"/>
    <line x1="-80" y1="0" x2="-80" y2="10" class="check"/>
    <line x1="-70" y1="0" x2="-70" y2="10" class="check"/>
    <line x1="-60" y1="0" x2="-60" y2="10" class="check"/>
    <line x1="-50" y1="0" x2="-50" y2="15" class="check"/>
    <text class="check half-century" x="-50" y="-5" text-anchor="middle">50</text>
    <line x1="-40" y1="0" x2="-40" y2="10" class="check"/>
    <line x1="-30" y1="0" x2="-30" y2="10" class="check"/>
    <line x1="-20" y1="0" x2="-20" y2="10" class="check"/>
    <line x1="-10" y1="0" x2="-10" y2="10" class="check"/>
    <line x1="0" y1="0" x2="0" y2="20" class="check"/>
    <line x1="0" y1="30" x2="0" y2="2000" class="grid"/>
    <text class="check century" x="0" y="-5" text-anchor="middle">0</text>
    <line x1="10" y1="0" x2="10" y2="10" class="check"/>
    <line x1="20" y1="0" x2="20" y2="10" class="check"/>
    <line x1="30" y1="0" x2="30" y2="10" class="check"/>
    <line x1="40" y1="0" x2="40" y2="10" class="check"/>
    <line x1="50" y1="0" x2="50" y2="15" class="check"/>
    <text class="check half-century" x="50" y="-5" text-anchor="middle">50</text>
    <line x1="60" y1="0" x2="60" y2="10" class="check"/>
    <line x1="70" y1="0" x2="70" y2="10" class="check"/>
    <line x1="80" y1="0" x2="80" y2="10" class="check"/>
    <line x1="90" y1="0" x2="90" y2="10" class="check"/>
    <line x1="100" y1="0" x2="100" y2="20" class="check"/>
    <line x1="100" y1="30" x2="100" y2="2000" class="grid"/>
    <text class="check century" x="100" y="-5" text-anchor="middle">100</text>
    <line x1="110" y1="0" x2="110" y2="10" class="check"/>
    <line x1="120" y1="0" x2="120" y2="10" class="check"/>
    <line x1="130" y1="0" x2="130" y2="10" class="check"/>
    <line x1="140" y1="0" x2="140" y2="10" class="check"/>
    <line x1="150" y1="0" x2="150" y2="15" class="check"/>
    <text class="check half-century" x="150" y="-5" text-anchor="middle">50</text>
    <line x1="160" y1="0" x2="160" y2="10" class="check"/>
    <line x1="170" y1="0" x2="170" y2="10" class="check"/>
    <line x1="180" y1="0" x2="180" y2="10" class="check"/>
    <line x1="190" y1="0" x2="190" y2="10" class="check"/>
    <line x1="200" y1="0" x2="200" y2="20" class="check"/>
    <line x1="200" y1="30" x2="200" y2="2000" class="grid"/>
    <text class="check century" x="200" y="-5" text-anchor="middle">200</text>
    <line x1="210" y1="0" x2="210" y2="10" class="check"/>
    <line x1="220" y1="0" x2="220" y2="10" class="check"/>
    <line x1="230" y1="0" x2="230" y2="10" class="check"/>
    <line x1="240" y1="0" x2="240" y2="10" class="check"/>
    <line x1="250" y1="0" x2="250" y2="15" class="check"/>
    <text class="check half-century" x="250" y="-5" text-anchor="middle">50</text>
    <line x1="260" y1="0" x2="260" y2="10" class="check"/>
    <line x1="270" y1="0" x2="270" y2="10" class="check"/>
    <line x1="280" y1="0" x2="280" y2="10" class="check"/>
    <line x1="290" y1="0" x2="290" y2="10" class="check"/>
    <line x1="300" y1="0" x2="300" y2="20" class="check"/>
    <line x1="300" y1="30" x2="300" y2="2000" class="grid"/>
    <text class="check century" x="300" y="-5" text-anchor="middle">300</text>
    <line x1="310" y1="0" x2="310" y2="10" class="check"/>
    <line x1="320" y1="0" x2="320" y2="10" class="check"/>
    <line x1="330" y1="0" x2="330" y2="10" class="check"/>
    <line x1="340" y1="0" x2="340" y2="10" class="check"/>
    <line x1="350" y1="0" x2="350" y2="15" class="check"/>
    <text class="check half-century" x="350" y="-5" text-anchor="middle">50</text>
    <line x1="360" y1="0" x2="360" y2="10" class="check"/>
    <line x1="370" y1="0" x2="370" y2="10" class="check"/>
    <line x1="380" y1="0" x2="380" y2="10" class="check"/>
    <line x1="390" y1="0" x2="390" y2="10" class="check"/>
    <line x1="400" y1="0" x2="400" y2="20" class="check"/>
    <line x1="400" y1="30" x2="400" y2="2000" class="grid"/>
    <text class="check century" x="400" y="-5" text-anchor="middle">400</text>
    <line x1="410" y1="0" x2="410" y2="10" class="check"/>
    <line x1="420" y1="0" x2="420" y2="10" class="check"/>
    <line x1="430" y1="0" x2="430" y2="10" class="check"/>
    <line x1="440" y1="0" x2="440" y2="10" class="check"/>
    <line x1="450" y1="0" x2="450" y2="15" class="check"/>
    <text class="check half-century" x="450" y="-5" text-anchor="middle">50</text>
    <line x1="460" y1="0" x2="460" y2="10" class="check"/>
    <line x1="470" y1="0" x2="470" y2="10" class="check"/>
    <line x1="480" y1="0" x2="480" y2="10" class="check"/>
    <line x1="490" y1="0" x2="490" y2="10" class="check"/>
    <line x1="500" y1="0" x2="500" y2="20" class="check"/>
    <line x1="500" y1="30" x2="500" y2="2000" class="grid"/>
    <text class="check century" x="500" y="-5" text-anchor="middle">500</text>
    <line x1="510" y1="0" x2="510" y2="10" class="check"/>
    <line x1="520" y1="0" x2="520" y2="10" class="check"/>
    <line x1="530" y1="0" x2="530" y2="10" class="check"/>
    <line x1="540" y1="0" x2="540" y2="10" class="check"/>
    <line x1="550" y1="0" x2="550" y2="15" class="check"/>
    <text class="check half-century" x="550" y="-5" text-anchor="middle">50</text>
    <line x1="560" y1="0" x2="560" y2="10" class="check"/>
    <line x1="570" y1="0" x2="570" y2="10" class="check"/>
    <line x1="580" y1="0" x2="580" y2="10" class="check"/>
    <line x1="590" y1="0" x2="590" y2="10" class="check"/>
    <line x1="600" y1="0" x2="600" y2="20" class="check"/>
    <line x1="600" y1="30" x2="600" y2="2000" class="grid"/>
    <text class="check century" x="600" y="-5" text-anchor="middle">600</text>
    <line x1="610" y1="0" x2="610" y2="10" class="check"/>
    <line x1="620" y1="0" x2="620" y2="10" class="check"/>
    <line x1="630" y1="0" x2="630" y2="10" class="check"/>
    <line x1="640" y1="0" x2="640" y2="10" class="check"/>
    <line x1="650" y1="0" x2="650" y2="15" class="check"/>
    <text class="check half-century" x="650" y="-5" text-anchor="middle">50</text>
    <line x1="660" y1="0" x2="660" y2="10" class="check"/>
    <line x1="670" y1="0" x2="670" y2="10" class="check"/>
    <line x1="680" y1="0" x2="680" y2="10" class="check"/>
    <line x1="690" y1="0" x2="690" y2="10" class="check"/>
    <line x1="700" y1="0" x2="700" y2="20" class="check"/>
    <line x1="700" y1="30" x2="700" y2="2000" class="grid"/>
    <text class="check century" x="700" y="-5" text-anchor="middle">700</text>
    <line x1="710" y1="0" x2="710" y2="10" class="check"/>
    <line x1="720" y1="0" x2="720" y2="10" class="check"/>
    <line x1="730" y1="0" x2="730" y2="10" class="check"/>
    <line x1="740" y1="0" x2="740" y2="10" class="check"/>
    <line x1="750" y1="0" x2="750" y2="15" class="check"/>
    <text class="check half-century" x="750" y="-5" text-anchor="middle">50</text>
    <line x1="760" y1="0" x2="760" y2="10" class="check"/>
    <line x1="770" y1="0" x2="770" y2="10" class="check"/>
    <line x1="780" y1="0" x2="780" y2="10" class="check"/>
    <line x1="790" y1="0" x2="790" y2="10" class="check"/>
    <line x1="800" y1="0" x2="800" y2="20" class="check"/>
    <line x1="800" y1="30" x2="800" y2="2000" class="grid"/>
    <text class="check century" x="800" y="-5" text-anchor="middle">800</text>
    <line x1="810" y1="0" x2="810" y2="10" class="check"/>
    <line x1="820" y1="0" x2="820" y2="10" class="check"/>
    <line x1="830" y1="0" x2="830" y2="10" class="check"/>
    <line x1="840" y1="0" x2="840" y2="10" class="check"/>
    <line x1="850" y1="0" x2="850" y2="15" class="check"/>
    <text class="check half-century" x="850" y="-5" text-anchor="middle">50</text>
    <line x1="860" y1="0" x2="860" y2="10" class="check"/>
    <line x1="870" y1="0" x2="870" y2="10" class="check"/>
    <line x1="880" y1="0" x2="880" y2="10" class="check"/>
    <line x1="890" y1="0" x2="890" y2="10" class="check"/>
    <line x1="900" y1="0" x2="900" y2="20" class="check"/>
    <line x1="900" y1="30" x2="900" y2="2000" class="grid"/>
    <text class="check century" x="900" y="-5" text-anchor="middle">900</text>
    <line x1="910" y1="0" x2="910" y2="10" class="check"/>
    <line x1="920" y1="0" x2="920" y2="10" class="check"/>
    <line x1="930" y1="0" x2="930" y2="10" class="check"/>
    <line x1="940" y1="0" x2="940" y2="10" class="check"/>
    <line x1="950" y1="0" x2="950" y2="15" class="check"/>
    <text class="check half-century" x="950" y="-5" text-anchor="middle">50</text>
    <line x1="960" y1="0" x2="960" y2="10" class="check"/>
    <line x1="970" y1="0" x2="970" y2="10" class="check"/>
    <line x1="980" y1="0" x2="980" y2="10" class="check"/>
    <line x1="990" y1="0" x2="990" y2="10" class="check"/>
    <line x1="1000" y1="0" x2="1000" y2="20" class="check"/>
    <line x1="1000" y1="30" x2="1000" y2="2000" class="grid"/>
    <text class="check century" x="1000" y="-5" text-anchor="middle">1000</text>
    <line x1="1010" y1="0" x2="1010" y2="10" class="check"/>
    <line x1="1020" y1="0" x2="1020" y2="10" class="check"/>
    <line x1="1030" y1="0" x2="1030" y2="10" class="check"/>
    <line x1="1040" y1="0" x2="1040" y2="10" class="check"/>
    <line x1="1050" y1="0" x2="1050" y2="15" class="check"/>
    <text class="check half-century" x="1050" y="-5" text-anchor="middle">50</text>
    <line x1="1060" y1="0" x2="1060" y2="10" class="check"/>
    <line x1="1070" y1="0" x2="1070" y2="10" class="check"/>
    <line x1="1080" y1="0" x2="1080" y2="10" class="check"/>
    <line x1="1090" y1="0" x2="1090" y2="10" class="check"/>
    <line x1="1100" y1="0" x2="1100" y2="20" class="check"/>
    <line x1="1100" y1="30" x2="1100" y2="2000" class="grid"/>
    <text class="check century" x="1100" y="-5" text-anchor="middle">1100</text>
    <line x1="1110" y1="0" x2="1110" y2="10" class="check"/>
    <line x1="1120" y1="0" x2="1120" y2="10" class="check"/>
    <line x1="1130" y1="0" x2="1130" y2="10" class="check"/>
    <line x1="1140" y1="0" x2="1140" y2="10" class="check"/>
    <line x1="1150" y1="0" x2="1150" y2="15" class="check"/>
    <text class="check half-century" x="1150" y="-5" text-anchor="middle">50</text>
    <line x1="1160" y1="0" x2="1160" y2="10" class="check"/>
    <line x1="1170" y1="0" x2="1170" y2="10" class="check"/>
    <line x1="1180" y1="0" x2="1180" y2="10" class="check"/>
    <line x1="1190" y1="0" x2="1190" y2="10" class="check"/>
    <line x1="1200" y1="0" x2="1200" y2="20" class="check"/>
    <line x1="1200" y1="30" x2="1200" y2="2000" class="grid"/>
    <text class="check century" x="1200" y="-5" text-anchor="middle">1200</text>
    <line x1="1210" y1="0" x2="1210" y2="10" class="check"/>
    <line x1="1220" y1="0" x2="1220" y2="10" class="check"/>
    <line x1="1230" y1="0" x2="1230" y2="10" class="check"/>
    <line x1="1240" y1="0" x2="1240" y2="10" class="check"/>
    <line x1="1250" y1="0" x2="1250" y2="15" class="check"/>
    <text class="check half-century" x="1250" y="-5" text-anchor="middle">50</text>
    <line x1="1260" y1="0" x2="1260" y2="10" class="check"/>
    <line x1="1270" y1="0" x2="1270" y2="10" class="check"/>
    <line x1="1280" y1="0" x2="1280" y2="10" class="check"/>
    <line x1="1290" y1="0" x2="1290" y2="10" class="check"/>
    <line x1="1300" y1="0" x2="1300" y2="20" class="check"/>
    <line x1="1300" y1="30" x2="1300" y2="2000" class="grid"/>
    <text class="check century" x="1300" y="-5" text-anchor="middle">1300</text>
    <line x1="1310" y1="0" x2="1310" y2="10" class="check"/>
    <line x1="1320" y1="0" x2="1320" y2="10" class="check"/>
    <line x1="1330" y1="0" x2="1330" y2="10" class="check"/>
    <line x1="1340" y1="0" x2="1340" y2="10" class="check"/>
    <line x1="1350" y1="0" x2="1350" y2="15" class="check"/>
    <text class="check half-century" x="1350" y="-5" text-anchor="middle">50</text>
    <line x1="1360" y1="0" x2="1360" y2="10" class="check"/>
    <line x1="1370" y1="0" x2="1370" y2="10" class="check"/>
    <line x1="1380" y1="0" x2="1380" y2="10" class="check"/>
    <line x1="1390" y1="0" x2="1390" y2="10" class="check"/>
    <line x1="1400" y1="0" x2="1400" y2="20" class="check"/>
    <line x1="1400" y1="30" x2="1400" y2="2000" class="grid"/>
    <text class="check century" x="1400" y="-5" text-anchor="middle">1400</text>
    <line x1="1410" y1="0" x2="1410" y2="10" class="check"/>
    <line x1="1420" y1="0" x2="1420" y2="10" class="check"/>
    <line x1="1430" y1="0" x2="1430" y2="10" class="check"/>
    <line x1="1440" y1="0" x2="1440" y2="10" class="check"/>
    <line x1="1450" y1="0" x2="1450" y2="15" class="check"/>
    <text class="check half-century" x="1450" y="-5" text-anchor="middle">50</text>
    <line x1="1460" y1="0" x2="1460" y2="10" class="check"/>
    <line x1="1470" y1="0" x2="1470" y2="10" class="check"/>
    <line x1="1480" y1="0" x2="1480" y2="10" class="check"/>
    <line x1="1490" y1="0" x2="1490" y2="10" class="check"/>
    <line x1="1500" y1="0" x2="1500" y2="20" class="check"/>
    <line x1="1500" y1="30" x2="1500" y2="2000" class="grid"/>
    <text class="check century" x="1500" y="-5" text-anchor="middle">1500</text>
    <line x1="1510" y1="0" x2="1510" y2="10" class="check"/>
    <line x1="1520" y1="0" x2="1520" y2="10" class="check"/>
    <line x1="1530" y1="0" x2="1530" y2="10" class="check"/>
    <line x1="1540" y1="0" x2="1540" y2="10" class="check"/>
    <line x1="1550" y1="0" x2="1550" y2="15" class="check"/>
    <text class="check half-century" x="1550" y="-5" text-anchor="middle">50</text>
    <line x1="1560" y1="0" x2="1560" y2="10" class="check"/>
    <line x1="1570" y1="0" x2="1570" y2="10" class="check"/>
    <line x1="1580" y1="0" x2="1580" y2="10" class="check"/>
    <line x1="1590" y1="0" x2="1590" y2="10" class="check"/>
    <line x1="1600" y1="0" x2="1600" y2="20" class="check"/>
    <line x1="1600" y1="30" x2="1600" y2="2000" class="grid"/>
    <text class="check century" x="1600" y="-5" text-anchor="middle">1600</text>
    <line x1="1610" y1="0" x2="1610" y2="10" class="check"/>
    <line x1="1620" y1="0" x2="1620" y2="10" class="check"/>
    <line x1="1630" y1="0" x2="1630" y2="10" class="check"/>
    <line x1="1640" y1="0" x2="1640" y2="10" class="check"/>
    <line x1="1650" y1="0" x2="1650" y2="15" class="check"/>
    <text class="check half-century" x="1650" y="-5" text-anchor="middle">50</text>
    <line x1="1660" y1="0" x2="1660" y2="10" class="check"/>
    <line x1="1670" y1="0" x2="1670" y2="10" class="check"/>
    <line x1="1680" y1="0" x2="1680" y2="10" class="check"/>
    <line x1="1690" y1="0" x2="1690" y2="10" class="check"/>
    <line x1="1700" y1="0" x2="1700" y2="20" class="check"/>
    <line x1="1700" y1="30" x2="1700" y2="2000" class="grid"/>
    <text class="check century" x="1700" y="-5" text-anchor="middle">1700</text>
    <line x1="1710" y1="0" x2="1710" y2="10" class="check"/>
    <line x1="1720" y1="0" x2="1720" y2="10" class="check"/>
    <line x1="1730" y1="0" x2="1730" y2="10" class="check"/>
    <line x1="1740" y1="0" x2="1740" y2="10" class="check"/>
    <line x1="1750" y1="0" x2="1750" y2="15" class="check"/>
    <text class="check half-century" x="1750" y="-5" text-anchor="middle">50</text>
    <line x1="1760" y1="0" x2="1760" y2="10" class="check"/>
    <line x1="1770" y1="0" x2="1770" y2="10" class="check"/>
    <line x1="1780" y1="0" x2="1780" y2="10" class="check"/>
    <line x1="1790" y1="0" x2="1790" y2="10" class="check"/>
    <line x1="1800" y1="0" x2="1800" y2="20" class="check"/>
    <line x1="1800" y1="30" x2="1800" y2="2000" class="grid"/>
    <text class="check century" x="1800" y="-5" text-anchor="middle">1800</text>
    <line x1="1810" y1="0" x2="1810" y2="10" class="check"/>
    <line x1="1820" y1="0" x2="1820" y2="10" class="check"/>
    <line x1="1830" y1="0" x2="1830" y2="10" class="check"/>
    <line x1="1840" y1="0" x2="1840" y2="10" class="check"/>
    <line x1="1850" y1="0" x2="1850" y2="15" class="check"/>
    <text class="check half-century" x="1850" y="-5" text-anchor="middle">50</text>
    <line x1="1860" y1="0" x2="1860" y2="10" class="check"/>
    <line x1="1870" y1="0" x2="1870" y2="10" class="check"/>
    <line x1="1880" y1="0" x2="1880" y2="10" class="check"/>
    <line x1="1890" y1="0" x2="1890" y2="10" class="check"/>
    <line x1="1900" y1="0" x2="1900" y2="20" class="check"/>
    <line x1="1900" y1="30" x2="1900" y2="2000" class="grid"/>
    <text class="check century" x="1900" y="-5" text-anchor="middle">1900</text>
    <line x1="1910" y1="0" x2="1910" y2="10" class="check"/>
    <line x1="1920" y1="0" x2="1920" y2="10" class="check"/>
    <line x1="1930" y1="0" x2="1930" y2="10" class="check"/>
    <line x1="1940" y1="0" x2="1940" y2="10" class="check"/>
    <line x1="1950" y1="0" x2="1950" y2="15" class="check"/>
    <text class="check half-century" x="1950" y="-5" text-anchor="middle">50</text>
    <line x1="1960" y1="0" x2="1960" y2="10" class="check"/>
    <line x1="1970" y1="0" x2="1970" y2="10" class="check"/>
    <line x1="1980" y1="0" x2="1980" y2="10" class="check"/>
    <line x1="1990" y1="0" x2="1990" y2="10" class="check"/>
    <line x1="2000" y1="0" x2="2000" y2="20" class="check"/>
    <line x1="2000" y1="30" x2="2000" y2="2000" class="grid"/>
    <text class="check century" x="2000" y="-5" text-anchor="middle">2000</text>
    <line x1="2010" y1="0" x2="2010" y2="10" class="check"/>
    <line x1="2020" y1="0" x2="2020" y2="10" class="check"/>
    <line x1="2030" y1="0" x2="2030" y2="10" class="check"/>
    <rect x="-624" y="40" width="78" height="20" class="event"/>
    <text x="-629" y="55" text-anchor="end" class="event">Thales</text>
    <rect x="-611" y="70" width="65" height="20" class="event"/>
    <text x="-616" y="85" text-anchor="end" class="event">Anaximander</text>
    <rect x="-570" y="100" width="75" height="20" class="event"/>
    <text x="-575" y="115" text-anchor="end" class="event">Pythagoras</text>
    <rect x="-563" y="130" width="80" height="20" class="event"/>
    <text x="-568" y="145" text-anchor="end" class="event">Buddah</text>
    <rect x="-551" y="160" width="72" height="20" class="event"/>
    <text x="-556" y="175" text-anchor="end" class="event">Confucius</text>
    <rect x="-535" y="190" width="60" height="20" class="event"/>
    <text x="-540" y="205" text-anchor="end" class="event">Heraclitus</text>
    <rect x="-515" y="220" width="55" height="20" class="event"/>
    <text x="-520" y="235" text-anchor="end" class="event">Parmenides</text>
    <rect x="-510" y="250" width="82" height="20" class="event"/>
    <text x="-515" y="265" text-anchor="end" class="event">Anaxagoras</text>
    <rect x="-490" y="280" width="60" height="20" class="event"/>
    <text x="-495" y="295" text-anchor="end" class="event">Empedocles</text>
    <rect x="-485" y="310" width="105" height="20" class="event"/>
    <text x="-490" y="325" text-anchor="end" class="event">Gorgias</text>
    <rect x="-469" y="340" width="70" height="20" class="event"/>
    <text x="-474" y="355" text-anchor="end" class="event">Socrates</text>
    <rect x="-460" y="370" width="90" height="20" class="event"/>
    <text x="-465" y="385" text-anchor="end" class="event">Democritus</text>
    <rect x="-427" y="400" width="79" height="20" class="event"/>
    <text x="-432" y="415" text-anchor="end" class="event">Plato</text>
    <rect x="-384" y="430" width="62" height="20" class="event"/>
    <text x="-389" y="445" text-anchor="end" class="event">Aristotle</text>
    <rect x="-7" y="460" width="40" height="20" class="event"/>
    <text x="-12" y="475" text-anchor="end" class="event">Christ</text>
    <rect x="1225" y="490" width="49" height="20" class="event"/>
    <text x="1220" y="505" text-anchor="end" class="event">Thomas Aquinas</text>
    <rect x="1350" y="520" width="200" height="20" class="event"/>
    <text x="1345" y="535" text-anchor="end" class="event">The Rennaissance</text>
    <line x1="1517" y1="550" x2="1517" y2="570" class="event"/>
    <text x="1512" y="565" text-anchor="end" class="event">The Protestant Reformation</text>
    <rect x="1596" y="580" width="54" height="20" class="event"/>
    <text x="1591" y="595" text-anchor="end" class="event">René Descartes</text>
    <rect x="1632" y="610" width="72" height="20" class="event"/>
    <text x="1627" y="625" text-anchor="end" class="event">John Locke</text>
    <rect x="1632" y="640" width="45" height="20" class="event"/>
    <text x="1627" y="655" text-anchor="end" class="event">Baruch Spinoza</text>
    <rect x="1650" y="670" width="150" height="20" class="event"/>
    <text x="1645" y="685" text-anchor="end" class="event">The Enlightenment</text>
    <rect x="1723" y="700" width="67" height="20" class="event"/>
    <text x="1718" y="715" text-anchor="end" class="event">Adam Smith</text>
    <rect x="1724" y="730" width="80" height="20" class="event"/>
    <text x="1719" y="745" text-anchor="end" class="event">Immanuel Kant</text>
    <rect x="1748" y="760" width="84" height="20" class="event"/>
    <text x="1743" y="775" text-anchor="end" class="event">Jeremy Bentham</text>
    <rect x="1760" y="790" width="80" height="20" class="event"/>
    <text x="1755" y="805" text-anchor="end" class="event">The Industrial Revolution</text>
    <rect x="1770" y="820" width="61" height="20" class="event"/>
    <text x="1765" y="835" text-anchor="end" class="event">Georg Wilhelm Friedrich Hegel</text>
    <rect x="1788" y="850" width="72" height="20" class="event"/>
    <text x="1783" y="865" text-anchor="end" class="event">Arthur Schopenhauer</text>
    <rect x="1806" y="880" width="67" height="20" class="event"/>
    <text x="1801" y="895" text-anchor="end" class="event">John Stuart Mill</text>
    <rect x="1813" y="910" width="42" height="20" class="event"/>
    <text x="1808" y="925" text-anchor="end" class="event">Søren Kierkegaard</text>
    <rect x="1818" y="940" width="65" height="20" class="event"/>
    <text x="1813" y="955" text-anchor="end" class="event">Karl Marx</text>
    <rect x="1821" y="970" width="60" height="20" class="event"/>
    <text x="1816" y="985" text-anchor="end" class="event">Fyodor Dostoyevsky</text>
    <rect x="1828" y="1000" width="82" height="20" class="event"/>
    <text x="1823" y="1015" text-anchor="end" class="event">Leo Tolstoy</text>
    <rect x="1844" y="1030" width="56" height="20" class="event"/>
    <text x="1839" y="1045" text-anchor="end" class="event">Friedrich Nietzsche</text>
    <rect x="1856" y="1060" width="83" height="20" class="event"/>
    <text x="1851" y="1075" text-anchor="end" class="event">Sigmund Freud</text>
    <rect x="1866" y="1090" width="72" height="20" class="event"/>
    <text x="1861" y="1105" text-anchor="end" class="event">Lev Shestov</text>
    <rect x="1870" y="1120" width="82" height="20" class="event"/>
    <text x="1865" y="1135" text-anchor="end" class="event">Maria Montessori</text>
    <rect x="1875" y="1150" width="86" height="20" class="event"/>
    <text x="1870" y="1165" text-anchor="end" class="event">Carl Jung</text>
    <rect x="1883" y="1180" width="41" height="20" class="event"/>
    <text x="1878" y="1195" text-anchor="end" class="event">Franz Kafka</text>
    <rect x="1883" y="1210" width="63" height="20" class="event"/>
    <text x="1878" y="1225" text-anchor="end" class="event">John Maynard Keynes</text>
    <rect x="1889" y="1240" width="87" height="20" class="event"/>
    <text x="1884" y="1255" text-anchor="end" class="event">Martin Heidegger</text>
    <rect x="1905" y="1270" width="75" height="20" class="event"/>
    <text x="1900" y="1285" text-anchor="end" class="event">Jean-Paul Sartre</text>
    <rect x="1905" y="1300" width="77" height="20" class="event"/>
    <text x="1900" y="1315" text-anchor="end" class="event">Ayn Rand</text>
    <rect x="1912" y="1330" width="94" height="20" class="event"/>
    <text x="1907" y="1345" text-anchor="end" class="event">Milton Friedman</text>
    <rect x="1913" y="1360" width="47" height="20" class="event"/>
    <text x="1908" y="1375" text-anchor="end" class="event">Albert Camus</text>
    <rect x="1914" y="1390" width="4" height="20" class="event"/>
    <text x="1909" y="1405" text-anchor="end" class="event">The First World War</text>
    <rect x="1921" y="1420" width="81" height="20" class="event"/>
    <text x="1916" y="1435" text-anchor="end" class="event">John Rawls</text>
    <rect x="1939" y="1450" width="6" height="20" class="event"/>
    <text x="1934" y="1465" text-anchor="end" class="event">The Second World War</text>
  </g>
</svg>
